<?xml version="1.0" encoding="UTF-8"?>
<svg id="Lager_1" data-name="Lager 1" xmlns="http://www.w3.org/2000/svg" viewBox="0 0 107.16 107.16">
  <path id="Icon_awesome-coins" data-name="Icon awesome-coins" d="M0,84.83v8.93c0,7.39,18,13.39,40.18,13.39s40.18-6.01,40.18-13.39v-8.93c-8.63,6.09-24.44,8.93-40.18,8.93s-31.55-2.85-40.18-8.93ZM66.97,26.79c22.18,0,40.18-6.01,40.18-13.39S89.16,0,66.97,0,26.79,6.01,26.79,13.39s18,13.39,40.18,13.39ZM0,62.87v10.8c0,7.39,18,13.39,40.18,13.39s40.18-6.01,40.18-13.39v-10.8c-8.63,7.12-24.47,10.8-40.18,10.8S8.63,69.99,0,62.87Zm87.06,2.3c11.99-2.32,20.09-6.63,20.09-11.59v-8.93c-6.12,3.79-12.96,6.25-20.09,7.22v13.3Zm-46.88-31.69C18,33.49,0,40.98,0,50.23s18,16.74,40.18,16.74,40.18-7.49,40.18-16.74-18-16.74-40.18-16.74Zm45.9,11.78c12.56-2.26,21.07-6.7,21.07-11.78v-8.93c-7.44,5.25-20.2,8.08-33.64,8.75,5.56,2.24,10.06,6.52,12.56,11.97Z"/>
</svg>