<?xml version="1.0" encoding="UTF-8"?>
<svg id="Lager_1" data-name="Lager 1" xmlns="http://www.w3.org/2000/svg" viewBox="0 0 384.76 384.76">
  <defs>
    <style>
      .cls-1 {
        stroke: #000;
        stroke-miterlimit: 10;
        stroke-width: 5px;
      }
    </style>
  </defs>
  <path id="Icon_awesome-phone" data-name="Icon awesome-phone" class="cls-1" d="M368.46,20.75L291.33,2.95c-8.39-1.9-16.95,2.42-20.4,10.31l-35.6,83.08c-3.13,7.29-1.04,15.77,5.12,20.77l44.95,36.79c-27.22,57.74-73.69,104.2-131.43,131.42l-36.79-44.95c-5.01-6.15-13.49-8.24-20.78-5.12L13.33,270.86c-7.93,3.45-12.29,12.04-10.39,20.48l17.81,77.13c1.86,8.08,9.06,13.8,17.35,13.8,190.05,.02,344.13-154.02,344.16-344.07v-.08c.01-8.3-5.71-15.5-13.8-17.35Z"/>
</svg>